<mxfile host="app.diagrams.net" modified="2023-04-01T14:26:06.303Z" agent="5.0 (Windows NT 10.0; Win64; x64) AppleWebKit/537.36 (KHTML, like Gecko) Chrome/111.0.0.0 Safari/537.36" etag="bFK744f-yC16GajvjsVu" version="20.8.18" type="github">
  <diagram name="Page-1" id="vnXPqtTWHt4VPPqranMU">
    <mxGraphModel dx="880" dy="452" grid="1" gridSize="10" guides="1" tooltips="1" connect="1" arrows="1" fold="1" page="1" pageScale="1" pageWidth="1100" pageHeight="850" math="0" shadow="0">
      <root>
        <mxCell id="0" />
        <mxCell id="1" parent="0" />
        <mxCell id="G24x0Q7YpjulBUD-WfB2-1" value="&lt;span style=&quot;&quot; id=&quot;docs-internal-guid-8f71abb1-7fff-43e4-6c69-f746ee075661&quot;&gt;&lt;div align=&quot;left&quot; style=&quot;margin-left:84.75pt;&quot; dir=&quot;ltr&quot;&gt;&lt;table style=&quot;border: none; border-collapse: collapse;&quot;&gt;&lt;colgroup&gt;&lt;col width=&quot;417&quot;&gt;&lt;/colgroup&gt;&lt;tbody&gt;&lt;tr style=&quot;height:104.548828125pt&quot;&gt;&lt;td style=&quot;border-width: 1pt; border-style: solid; border-color: rgb(0, 0, 0); vertical-align: top; padding: 5pt; overflow: hidden; overflow-wrap: break-word;&quot;&gt;&lt;p style=&quot;line-height:1.2;text-align: justify;margin-top:0pt;margin-bottom:0pt;&quot; dir=&quot;ltr&quot;&gt;&lt;span style=&quot;font-size: 12pt; font-family: &amp;quot;Times New Roman&amp;quot;; color: rgb(0, 0, 0); font-style: normal; font-variant: normal; text-decoration: none; vertical-align: baseline;&quot;&gt; &amp;nbsp; &amp;nbsp; &amp;nbsp; &amp;nbsp; &amp;nbsp; &amp;nbsp; &amp;nbsp; &amp;nbsp; &amp;nbsp; &amp;nbsp; &lt;/span&gt;&lt;span style=&quot;font-size: 12pt; font-family: &amp;quot;Times New Roman&amp;quot;; color: rgb(0, 0, 0); font-style: normal; font-variant: normal; text-decoration: none; vertical-align: baseline;&quot;&gt;Requirement for the logging tool&lt;/span&gt;&lt;/p&gt;&lt;ul style=&quot;margin-top:0;margin-bottom:0;padding-inline-start:48px;&quot;&gt;&lt;li aria-level=&quot;1&quot; style=&quot;list-style-type: disc; font-size: 12pt; font-family: &amp;quot;Times New Roman&amp;quot;; color: rgb(0, 0, 0); font-style: normal; font-variant: normal; text-decoration: none; vertical-align: baseline;&quot; dir=&quot;ltr&quot;&gt;&lt;p role=&quot;presentation&quot; style=&quot;line-height:1.2;text-align: justify;margin-top:0pt;margin-bottom:0pt;&quot; dir=&quot;ltr&quot;&gt;&lt;span style=&quot;font-size: 12pt; font-family: &amp;quot;Times New Roman&amp;quot;; color: rgb(0, 0, 0); font-style: normal; font-variant: normal; text-decoration: none; vertical-align: baseline;&quot;&gt;Information needed to capture experiments&lt;/span&gt;&lt;/p&gt;&lt;/li&gt;&lt;li aria-level=&quot;1&quot; style=&quot;list-style-type: disc; font-size: 12pt; font-family: &amp;quot;Times New Roman&amp;quot;; color: rgb(0, 0, 0); font-style: normal; font-variant: normal; text-decoration: none; vertical-align: baseline;&quot; dir=&quot;ltr&quot;&gt;&lt;p role=&quot;presentation&quot; style=&quot;line-height:1.2;text-align: justify;margin-top:0pt;margin-bottom:0pt;&quot; dir=&quot;ltr&quot;&gt;&lt;span style=&quot;font-size: 12pt; font-family: &amp;quot;Times New Roman&amp;quot;; color: rgb(0, 0, 0); font-style: normal; font-variant: normal; text-decoration: none; vertical-align: baseline;&quot;&gt;How it will timestamp experiments, and&amp;nbsp;&lt;/span&gt;&lt;/p&gt;&lt;/li&gt;&lt;li aria-level=&quot;1&quot; style=&quot;list-style-type: disc; font-size: 12pt; font-family: &amp;quot;Times New Roman&amp;quot;; color: rgb(0, 0, 0); font-style: normal; font-variant: normal; text-decoration: none; vertical-align: baseline;&quot; dir=&quot;ltr&quot;&gt;&lt;p role=&quot;presentation&quot; style=&quot;line-height:1.2;text-align: justify;margin-top:0pt;margin-bottom:0pt;&quot; dir=&quot;ltr&quot;&gt;&lt;span style=&quot;font-size: 12pt; font-family: &amp;quot;Times New Roman&amp;quot;; color: rgb(0, 0, 0); font-style: normal; font-variant: normal; text-decoration: none; vertical-align: baseline;&quot;&gt;How it will store and visualize experiment logs.&amp;nbsp;&lt;/span&gt;&lt;/p&gt;&lt;/li&gt;&lt;/ul&gt;&lt;br&gt;&lt;p style=&quot;line-height:1.2;text-align: justify;margin-top:0pt;margin-bottom:0pt;&quot; dir=&quot;ltr&quot;&gt;&lt;span style=&quot;font-size: 12pt; font-family: &amp;quot;Times New Roman&amp;quot;; color: rgb(0, 0, 0); font-style: normal; font-variant: normal; text-decoration: none; vertical-align: baseline;&quot;&gt;&amp;nbsp;{&lt;/span&gt;&lt;span style=&quot;font-size: 12pt; font-family: &amp;quot;Times New Roman&amp;quot;; color: rgb(0, 0, 0); font-style: italic; font-variant: normal; text-decoration: none; vertical-align: baseline;&quot;&gt;work is still on progress on how to answer this questions&lt;/span&gt;&lt;span style=&quot;font-size: 12pt; font-family: &amp;quot;Times New Roman&amp;quot;; color: rgb(0, 0, 0); font-style: normal; font-variant: normal; text-decoration: none; vertical-align: baseline;&quot;&gt;}&lt;/span&gt;&lt;/p&gt;&lt;br&gt;&lt;br&gt;&lt;/td&gt;&lt;/tr&gt;&lt;/tbody&gt;&lt;/table&gt;&lt;/div&gt;&lt;/span&gt;" style="text;whiteSpace=wrap;html=1;fontStyle=1;labelBackgroundColor=#FFFFFF;" vertex="1" parent="1">
          <mxGeometry x="180" y="10" width="530" height="10" as="geometry" />
        </mxCell>
        <mxCell id="G24x0Q7YpjulBUD-WfB2-16" style="edgeStyle=orthogonalEdgeStyle;rounded=0;orthogonalLoop=1;jettySize=auto;html=1;fontColor=#000000;labelBackgroundColor=#FFFFFF;" edge="1" parent="1" source="G24x0Q7YpjulBUD-WfB2-2">
          <mxGeometry relative="1" as="geometry">
            <mxPoint x="125" y="590" as="targetPoint" />
          </mxGeometry>
        </mxCell>
        <mxCell id="G24x0Q7YpjulBUD-WfB2-2" value="&lt;span style=&quot;&quot; id=&quot;docs-internal-guid-87b38fee-7fff-7bf4-3341-2061d5f99c98&quot;&gt;&lt;div align=&quot;left&quot; style=&quot;margin-left:-6.75pt;&quot; dir=&quot;ltr&quot;&gt;&lt;table style=&quot;border:none;border-collapse:collapse;&quot;&gt;&lt;colgroup&gt;&lt;col width=&quot;195&quot;&gt;&lt;/colgroup&gt;&lt;tbody&gt;&lt;tr style=&quot;height:48.75pt&quot;&gt;&lt;td style=&quot;border-left:solid #000000 1pt;border-right:solid #000000 1pt;border-bottom:solid #000000 1pt;border-top:solid #000000 1pt;vertical-align:top;padding:5pt 5pt 5pt 5pt;overflow:hidden;overflow-wrap:break-word;&quot;&gt;&lt;p style=&quot;line-height:1.2;text-align: justify;margin-top:0pt;margin-bottom:0pt;&quot; dir=&quot;ltr&quot;&gt;&lt;span style=&quot;font-size: 12pt; font-family: &amp;quot;Times New Roman&amp;quot;; color: rgb(0, 0, 0); font-style: normal; font-variant: normal; text-decoration: none; vertical-align: baseline;&quot;&gt;Developing client-side tools using Python.&amp;nbsp;&lt;/span&gt;&lt;/p&gt;&lt;br&gt;&lt;ul style=&quot;margin-top:0;margin-bottom:0;padding-inline-start:48px;&quot;&gt;&lt;li aria-level=&quot;1&quot; style=&quot;list-style-type: disc; font-size: 12pt; font-family: &amp;quot;Times New Roman&amp;quot;; color: rgb(0, 0, 0); font-style: normal; font-variant: normal; text-decoration: none; vertical-align: baseline;&quot; dir=&quot;ltr&quot;&gt;&lt;p role=&quot;presentation&quot; style=&quot;line-height:1.2;text-align: justify;margin-top:0pt;margin-bottom:0pt;&quot; dir=&quot;ltr&quot;&gt;&lt;span style=&quot;font-size: 12pt; font-family: &amp;quot;Times New Roman&amp;quot;; color: rgb(0, 0, 0); font-style: normal; font-variant: normal; text-decoration: none; vertical-align: baseline;&quot;&gt;This will involve creating a bash script to start/stop an experiment, sending requests to the server-side tool, and displaying responses to the user.&lt;/span&gt;&lt;/p&gt;&lt;/li&gt;&lt;/ul&gt;&lt;/td&gt;&lt;/tr&gt;&lt;/tbody&gt;&lt;/table&gt;&lt;/div&gt;&lt;/span&gt;" style="text;whiteSpace=wrap;html=1;fontStyle=1;labelBackgroundColor=#FFFFFF;" vertex="1" parent="1">
          <mxGeometry x="20" y="270" width="210" height="260" as="geometry" />
        </mxCell>
        <mxCell id="G24x0Q7YpjulBUD-WfB2-19" style="edgeStyle=orthogonalEdgeStyle;rounded=0;orthogonalLoop=1;jettySize=auto;html=1;exitX=0.5;exitY=1;exitDx=0;exitDy=0;fontColor=#000000;labelBackgroundColor=#FFFFFF;" edge="1" parent="1" source="G24x0Q7YpjulBUD-WfB2-3">
          <mxGeometry relative="1" as="geometry">
            <mxPoint x="415" y="590" as="targetPoint" />
          </mxGeometry>
        </mxCell>
        <mxCell id="G24x0Q7YpjulBUD-WfB2-3" value="&lt;span style=&quot;&quot; id=&quot;docs-internal-guid-711c3fd1-7fff-5ce3-1e08-27312bbcdb6b&quot;&gt;&lt;div align=&quot;left&quot; style=&quot;margin-left:0pt;&quot; dir=&quot;ltr&quot;&gt;&lt;table style=&quot;border:none;border-collapse:collapse;&quot;&gt;&lt;colgroup&gt;&lt;col width=&quot;257&quot;&gt;&lt;/colgroup&gt;&lt;tbody&gt;&lt;tr style=&quot;height:60.298828125pt&quot;&gt;&lt;td style=&quot;border-left:solid #000000 1pt;border-right:solid #000000 1pt;border-bottom:solid #000000 1pt;border-top:solid #000000 1pt;vertical-align:top;padding:5pt 5pt 5pt 5pt;overflow:hidden;overflow-wrap:break-word;&quot;&gt;&lt;p style=&quot;line-height:1.2;text-align: justify;margin-top:0pt;margin-bottom:0pt;&quot; dir=&quot;ltr&quot;&gt;&lt;span style=&quot;font-size: 12pt; font-family: &amp;quot;Times New Roman&amp;quot;; color: rgb(0, 0, 0); font-style: normal; font-variant: normal; text-decoration: none; vertical-align: baseline;&quot;&gt;Develop the server-side tool using Python and Flask.&amp;nbsp;&lt;/span&gt;&lt;/p&gt;&lt;br&gt;&lt;ul style=&quot;margin-top:0;margin-bottom:0;padding-inline-start:48px;&quot;&gt;&lt;li aria-level=&quot;1&quot; style=&quot;list-style-type: disc; font-size: 12pt; font-family: &amp;quot;Times New Roman&amp;quot;; color: rgb(0, 0, 0); font-style: normal; font-variant: normal; text-decoration: none; vertical-align: baseline;&quot; dir=&quot;ltr&quot;&gt;&lt;p role=&quot;presentation&quot; style=&quot;line-height:1.2;text-align: justify;margin-top:0pt;margin-bottom:0pt;&quot; dir=&quot;ltr&quot;&gt;&lt;span style=&quot;font-size: 12pt; font-family: &amp;quot;Times New Roman&amp;quot;; color: rgb(0, 0, 0); font-style: normal; font-variant: normal; text-decoration: none; vertical-align: baseline;&quot;&gt;This will involve creating RESTful APIs to handle requests from the client-side tool, writing scripts to capture the relevant data, time stamping experiments, and integrating the tool with a SQLite database&lt;/span&gt;&lt;/p&gt;&lt;/li&gt;&lt;/ul&gt;&lt;/td&gt;&lt;/tr&gt;&lt;/tbody&gt;&lt;/table&gt;&lt;/div&gt;&lt;/span&gt;" style="text;whiteSpace=wrap;html=1;fontStyle=1;labelBackgroundColor=#FFFFFF;" vertex="1" parent="1">
          <mxGeometry x="280" y="275" width="270" height="225" as="geometry" />
        </mxCell>
        <mxCell id="G24x0Q7YpjulBUD-WfB2-7" value="&lt;span style=&quot;&quot; id=&quot;docs-internal-guid-9653f17b-7fff-a1e9-ef17-a8e098ec560f&quot;&gt;&lt;div align=&quot;left&quot; style=&quot;margin-left:0pt;&quot; dir=&quot;ltr&quot;&gt;&lt;table style=&quot;border:none;border-collapse:collapse;&quot;&gt;&lt;colgroup&gt;&lt;col width=&quot;254&quot;&gt;&lt;/colgroup&gt;&lt;tbody&gt;&lt;tr style=&quot;height:161.25pt&quot;&gt;&lt;td style=&quot;border-left:solid #000000 1pt;border-right:solid #000000 1pt;border-bottom:solid #000000 1pt;border-top:solid #000000 1pt;vertical-align:top;padding:5pt 5pt 5pt 5pt;overflow:hidden;overflow-wrap:break-word;&quot;&gt;&lt;p style=&quot;line-height:1.2;text-align: justify;margin-top:0pt;margin-bottom:0pt;&quot; dir=&quot;ltr&quot;&gt;&lt;span style=&quot;font-size: 12pt; font-family: &amp;quot;Times New Roman&amp;quot;; color: rgb(0, 0, 0); font-style: normal; font-variant: normal; text-decoration: none; vertical-align: baseline;&quot;&gt;Use Docker technology by creating an image&amp;nbsp; to create a containerized environment for the logging tool. This will ensure that the tool runs consistently across different machines and operating systems.&lt;/span&gt;&lt;/p&gt;&lt;/td&gt;&lt;/tr&gt;&lt;/tbody&gt;&lt;/table&gt;&lt;/div&gt;&lt;br&gt;&lt;br&gt;&lt;/span&gt;" style="text;whiteSpace=wrap;html=1;fontStyle=1;labelBackgroundColor=#FFFFFF;" vertex="1" parent="1">
          <mxGeometry x="600" y="275" width="230" height="225" as="geometry" />
        </mxCell>
        <mxCell id="G24x0Q7YpjulBUD-WfB2-11" style="edgeStyle=orthogonalEdgeStyle;rounded=0;orthogonalLoop=1;jettySize=auto;html=1;exitX=1;exitY=0.5;exitDx=0;exitDy=0;entryX=0;entryY=0.5;entryDx=0;entryDy=0;labelBackgroundColor=#FFFFFF;" edge="1" parent="1" source="G24x0Q7YpjulBUD-WfB2-8" target="G24x0Q7YpjulBUD-WfB2-9">
          <mxGeometry relative="1" as="geometry" />
        </mxCell>
        <mxCell id="G24x0Q7YpjulBUD-WfB2-12" style="edgeStyle=orthogonalEdgeStyle;rounded=0;orthogonalLoop=1;jettySize=auto;html=1;exitX=0.5;exitY=1;exitDx=0;exitDy=0;labelBackgroundColor=#FFFFFF;" edge="1" parent="1" source="G24x0Q7YpjulBUD-WfB2-8" target="G24x0Q7YpjulBUD-WfB2-10">
          <mxGeometry relative="1" as="geometry" />
        </mxCell>
        <mxCell id="G24x0Q7YpjulBUD-WfB2-8" value="&lt;span style=&quot;&quot; id=&quot;docs-internal-guid-ccab4e8a-7fff-d47f-dbd8-72167bf76329&quot;&gt;&lt;div align=&quot;left&quot; style=&quot;margin-left:0pt;&quot; dir=&quot;ltr&quot;&gt;&lt;table style=&quot;border:none;border-collapse:collapse;&quot;&gt;&lt;colgroup&gt;&lt;col width=&quot;274&quot;&gt;&lt;/colgroup&gt;&lt;tbody&gt;&lt;tr style=&quot;height:96pt&quot;&gt;&lt;td style=&quot;border-left:solid #000000 1pt;border-right:solid #000000 1pt;border-bottom:solid #000000 1pt;border-top:solid #000000 1pt;vertical-align:top;padding:5pt 5pt 5pt 5pt;overflow:hidden;overflow-wrap:break-word;&quot;&gt;&lt;br&gt;&lt;p style=&quot;line-height:1.2;margin-top:0pt;margin-bottom:0pt;&quot; dir=&quot;ltr&quot;&gt;&lt;span style=&quot;font-size: 12pt; font-family: &amp;quot;Times New Roman&amp;quot;; color: rgb(0, 0, 0); font-style: normal; font-variant: normal; text-decoration: none; vertical-align: baseline;&quot;&gt;Test the logging tools&lt;/span&gt;&lt;/p&gt;&lt;br&gt;&lt;ul style=&quot;margin-top:0;margin-bottom:0;padding-inline-start:48px;&quot;&gt;&lt;li aria-level=&quot;1&quot; style=&quot;list-style-type: disc; font-size: 12pt; font-family: &amp;quot;Times New Roman&amp;quot;; color: rgb(0, 0, 0); font-style: normal; font-variant: normal; text-decoration: none; vertical-align: baseline;&quot; dir=&quot;ltr&quot;&gt;&lt;p role=&quot;presentation&quot; style=&quot;line-height:1.2;margin-top:0pt;margin-bottom:0pt;&quot; dir=&quot;ltr&quot;&gt;&lt;span style=&quot;font-size: 12pt; font-family: &amp;quot;Times New Roman&amp;quot;; color: rgb(0, 0, 0); font-style: normal; font-variant: normal; text-decoration: none; vertical-align: baseline;&quot;&gt;To ensure that it is capturing all the required data accurately and timestamping experiments correctly.&lt;/span&gt;&lt;/p&gt;&lt;/li&gt;&lt;/ul&gt;&lt;br&gt;&lt;/td&gt;&lt;/tr&gt;&lt;/tbody&gt;&lt;/table&gt;&lt;/div&gt;&lt;/span&gt;" style="text;whiteSpace=wrap;html=1;fontStyle=1;labelBackgroundColor=#FFFFFF;" vertex="1" parent="1">
          <mxGeometry x="40" y="630" width="270" height="160" as="geometry" />
        </mxCell>
        <mxCell id="G24x0Q7YpjulBUD-WfB2-9" value="&lt;span style=&quot;&quot; id=&quot;docs-internal-guid-e1f29016-7fff-4933-a8f5-e3dc59dcd443&quot;&gt;&lt;div align=&quot;left&quot; style=&quot;margin-left:0pt;&quot; dir=&quot;ltr&quot;&gt;&lt;table style=&quot;border:none;border-collapse:collapse;&quot;&gt;&lt;colgroup&gt;&lt;col width=&quot;274&quot;&gt;&lt;/colgroup&gt;&lt;tbody&gt;&lt;tr style=&quot;height:96pt&quot;&gt;&lt;td style=&quot;border-left:solid #000000 1pt;border-right:solid #000000 1pt;border-bottom:solid #000000 1pt;border-top:solid #000000 1pt;vertical-align:top;padding:5pt 5pt 5pt 5pt;overflow:hidden;overflow-wrap:break-word;&quot;&gt;&lt;br&gt;&lt;p style=&quot;line-height:1.2;margin-top:0pt;margin-bottom:0pt;&quot; dir=&quot;ltr&quot;&gt;&lt;span style=&quot;font-size: 12pt; font-family: &amp;quot;Times New Roman&amp;quot;; color: rgb(0, 0, 0); font-style: normal; font-variant: normal; text-decoration: none; vertical-align: baseline;&quot;&gt;Visualization:&lt;/span&gt;&lt;/p&gt;&lt;ul style=&quot;margin-top:0;margin-bottom:0;padding-inline-start:48px;&quot;&gt;&lt;li aria-level=&quot;1&quot; style=&quot;list-style-type: disc; font-size: 12pt; font-family: &amp;quot;Times New Roman&amp;quot;; color: rgb(0, 0, 0); font-style: normal; font-variant: normal; text-decoration: none; vertical-align: baseline;&quot; dir=&quot;ltr&quot;&gt;&lt;p role=&quot;presentation&quot; style=&quot;line-height:1.2;margin-top:0pt;margin-bottom:0pt;&quot; dir=&quot;ltr&quot;&gt;&lt;span style=&quot;font-size: 12pt; font-family: &amp;quot;Times New Roman&amp;quot;; color: rgb(0, 0, 0); font-style: normal; font-variant: normal; text-decoration: none; vertical-align: baseline;&quot;&gt;Prometheus instance to create interactive dashboards to visualize experiment logs stored in the SQLite database&lt;/span&gt;&lt;/p&gt;&lt;/li&gt;&lt;/ul&gt;&lt;br&gt;&lt;/td&gt;&lt;/tr&gt;&lt;/tbody&gt;&lt;/table&gt;&lt;/div&gt;&lt;/span&gt;" style="text;whiteSpace=wrap;html=1;fontStyle=1;labelBackgroundColor=#FFFFFF;" vertex="1" parent="1">
          <mxGeometry x="360" y="635" width="560" height="170" as="geometry" />
        </mxCell>
        <mxCell id="G24x0Q7YpjulBUD-WfB2-10" value="&lt;span style=&quot;&quot; id=&quot;docs-internal-guid-3d7859b0-7fff-2d41-9bea-270885637c84&quot;&gt;&lt;div align=&quot;left&quot; style=&quot;margin-left:0pt;&quot; dir=&quot;ltr&quot;&gt;&lt;table style=&quot;border:none;border-collapse:collapse;&quot;&gt;&lt;colgroup&gt;&lt;col width=&quot;274&quot;&gt;&lt;/colgroup&gt;&lt;tbody&gt;&lt;tr style=&quot;height:96pt&quot;&gt;&lt;td style=&quot;border-left:solid #000000 1pt;border-right:solid #000000 1pt;border-bottom:solid #000000 1pt;border-top:solid #000000 1pt;vertical-align:top;padding:5pt 5pt 5pt 5pt;overflow:hidden;overflow-wrap:break-word;&quot;&gt;&lt;br&gt;&lt;p style=&quot;line-height:1.2;margin-left: 36pt;margin-top:0pt;margin-bottom:0pt;&quot; dir=&quot;ltr&quot;&gt;&lt;span style=&quot;font-size: 12pt; font-family: &amp;quot;Times New Roman&amp;quot;; color: rgb(0, 0, 0); font-style: normal; font-variant: normal; text-decoration: none; vertical-align: baseline;&quot;&gt;Logging tool deployment:&lt;/span&gt;&lt;/p&gt;&lt;br&gt;&lt;ul style=&quot;margin-top:0;margin-bottom:0;padding-inline-start:48px;&quot;&gt;&lt;li aria-level=&quot;1&quot; style=&quot;list-style-type: disc; font-size: 12pt; font-family: &amp;quot;Times New Roman&amp;quot;; color: rgb(0, 0, 0); font-style: normal; font-variant: normal; text-decoration: none; vertical-align: baseline; margin-left: 36pt;&quot; dir=&quot;ltr&quot;&gt;&lt;p role=&quot;presentation&quot; style=&quot;line-height:1.2;margin-top:0pt;margin-bottom:0pt;&quot; dir=&quot;ltr&quot;&gt;&lt;span style=&quot;font-size: 12pt; font-family: &amp;quot;Times New Roman&amp;quot;; color: rgb(0, 0, 0); font-style: normal; font-variant: normal; text-decoration: none; vertical-align: baseline;&quot;&gt;Using a cloud service provider&amp;nbsp;&lt;/span&gt;&lt;/p&gt;&lt;/li&gt;&lt;/ul&gt;&lt;/td&gt;&lt;/tr&gt;&lt;/tbody&gt;&lt;/table&gt;&lt;/div&gt;&lt;br&gt;&lt;/span&gt;" style="text;whiteSpace=wrap;html=1;fontStyle=1;labelBackgroundColor=#FFFFFF;" vertex="1" parent="1">
          <mxGeometry x="40" y="860" width="360" height="170" as="geometry" />
        </mxCell>
        <mxCell id="G24x0Q7YpjulBUD-WfB2-14" value="" style="shape=link;html=1;rounded=0;labelBackgroundColor=#FFFFFF;" edge="1" parent="1">
          <mxGeometry width="100" relative="1" as="geometry">
            <mxPoint x="130" y="230" as="sourcePoint" />
            <mxPoint x="730" y="230" as="targetPoint" />
            <Array as="points" />
          </mxGeometry>
        </mxCell>
        <mxCell id="G24x0Q7YpjulBUD-WfB2-15" value="" style="shape=link;html=1;rounded=0;fontColor=#000000;labelBackgroundColor=#FFFFFF;" edge="1" parent="1">
          <mxGeometry width="100" relative="1" as="geometry">
            <mxPoint x="120" y="590" as="sourcePoint" />
            <mxPoint x="720" y="590" as="targetPoint" />
            <Array as="points" />
          </mxGeometry>
        </mxCell>
        <mxCell id="G24x0Q7YpjulBUD-WfB2-21" value="" style="endArrow=classic;html=1;rounded=0;fontColor=#000000;entryX=0.5;entryY=0;entryDx=0;entryDy=0;labelBackgroundColor=#FFFFFF;" edge="1" parent="1" target="G24x0Q7YpjulBUD-WfB2-8">
          <mxGeometry width="50" height="50" relative="1" as="geometry">
            <mxPoint x="175" y="590" as="sourcePoint" />
            <mxPoint x="270" y="570" as="targetPoint" />
          </mxGeometry>
        </mxCell>
        <mxCell id="G24x0Q7YpjulBUD-WfB2-23" value="" style="endArrow=classic;html=1;rounded=0;labelBackgroundColor=#FFFFFF;fontColor=#000000;" edge="1" parent="1">
          <mxGeometry width="50" height="50" relative="1" as="geometry">
            <mxPoint x="510" y="170" as="sourcePoint" />
            <mxPoint x="510" y="230" as="targetPoint" />
          </mxGeometry>
        </mxCell>
        <mxCell id="G24x0Q7YpjulBUD-WfB2-24" value="" style="endArrow=classic;html=1;rounded=0;labelBackgroundColor=#FFFFFF;fontColor=#000000;" edge="1" parent="1" target="G24x0Q7YpjulBUD-WfB2-2">
          <mxGeometry width="50" height="50" relative="1" as="geometry">
            <mxPoint x="210" y="270" as="sourcePoint" />
            <mxPoint x="260" y="220" as="targetPoint" />
          </mxGeometry>
        </mxCell>
        <mxCell id="G24x0Q7YpjulBUD-WfB2-25" value="" style="endArrow=classic;html=1;rounded=0;labelBackgroundColor=#FFFFFF;fontColor=#000000;" edge="1" parent="1">
          <mxGeometry width="50" height="50" relative="1" as="geometry">
            <mxPoint x="160" y="230" as="sourcePoint" />
            <mxPoint x="160" y="280" as="targetPoint" />
          </mxGeometry>
        </mxCell>
        <mxCell id="G24x0Q7YpjulBUD-WfB2-27" value="" style="endArrow=classic;html=1;rounded=0;labelBackgroundColor=#FFFFFF;fontColor=#000000;" edge="1" parent="1">
          <mxGeometry width="50" height="50" relative="1" as="geometry">
            <mxPoint x="675" y="500" as="sourcePoint" />
            <mxPoint x="675" y="580" as="targetPoint" />
            <Array as="points">
              <mxPoint x="675" y="530" />
              <mxPoint x="675" y="560" />
            </Array>
          </mxGeometry>
        </mxCell>
      </root>
    </mxGraphModel>
  </diagram>
</mxfile>
